

  <svg width="666.75" height="48" viewBox="0 0 3556 256" fill="none" xmlns="http://www.w3.org/2000/svg" xmlns:xlink="http://www.w3.org/1999/xlink" version="1.1">
    
        <g transform="translate(0, 0)">
          <svg xmlns="http://www.w3.org/2000/svg" width="256" height="256" fill="none" viewBox="0 0 256 256"><rect width="256" height="256" fill="#242938" rx="60"/><path fill="#2489CA" d="M33.7158 100.208C33.7158 100.208 28.9814 96.795 34.6627 92.2381L47.8994 80.402C47.8994 80.402 51.6869 76.4172 55.6915 79.8891L177.84 172.368V216.714C177.84 216.714 177.781 223.678 168.844 222.908L33.7158 100.208Z"/><path fill="#1070B3" d="M65.1997 128.792L33.7157 157.415C33.7157 157.415 30.4805 159.822 33.7157 164.123L48.3333 177.418C48.3333 177.418 51.8052 181.147 56.9341 176.905L90.3119 151.596L65.1997 128.792Z"/><path fill="#0877B9" d="M120.474 129.029L178.215 84.9391L177.84 40.83C177.84 40.83 175.374 31.2033 167.148 36.2139L90.312 106.145L120.474 129.029Z"/><path fill="#3C99D4" d="M168.844 222.968C172.198 226.4 176.262 225.276 176.262 225.276L221.259 203.103C227.019 199.177 226.21 194.305 226.21 194.305V61.8982C226.21 56.0788 220.252 54.0667 220.252 54.0667L181.253 35.267C172.731 30 167.148 36.2139 167.148 36.2139C167.148 36.2139 174.328 31.0455 177.84 40.83V215.905C177.84 217.109 177.583 218.292 177.071 219.358C176.045 221.429 173.816 223.362 168.47 222.553L168.844 222.968Z"/></svg>
        </g>
         
        <g transform="translate(300, 0)">
          <svg width="256" height="256" viewBox="0 0 256 256" fill="none" xmlns="http://www.w3.org/2000/svg">
<rect width="256" height="256" rx="60" fill="#242938"/>
<mask id="mask0_217_156" style="mask-type:alpha" maskUnits="userSpaceOnUse" x="28" y="28" width="200" height="200">
<path d="M64.6656 197.166L31.3344 172.166C30.2952 171.394 29.4519 170.389 28.8727 169.23C28.2935 168.072 27.9946 166.795 28.0001 165.5V90.5001C27.9946 89.2054 28.2935 87.9276 28.8727 86.7698C29.4519 85.6119 30.2952 84.6065 31.3344 83.8345L64.6656 58.8345C63.7702 59.6752 63.0936 60.7218 62.6944 61.8835C62.2952 63.0451 62.1856 64.2866 62.375 65.5001V190.5C62.1856 191.714 62.2952 192.955 62.6944 194.117C63.0936 195.278 63.7702 196.325 64.6656 197.166Z" fill="white"/>
<path d="M224.29 62.7093C222.917 61.8073 221.308 61.3291 219.665 61.3344C218.601 61.3258 217.544 61.5273 216.558 61.9274C215.571 62.3274 214.673 62.9181 213.915 63.6656L213.334 64.25L146.834 128L110.04 163.291L75.9999 195.915L75.4156 196.5C74.6583 197.248 73.7604 197.84 72.7736 198.241C71.7868 198.641 70.7305 198.843 69.6656 198.834C67.8628 198.83 66.1092 198.246 64.6656 197.165L31.3344 172.166C33.0279 173.437 35.1424 174.016 37.2476 173.784C39.3528 173.552 41.2902 172.526 42.6656 170.915L79.6656 127.959L110.04 92.7093L163.25 30.9156C164.022 30.0005 164.985 29.2654 166.072 28.7617C167.159 28.2581 168.343 27.9981 169.541 28C171.184 27.9947 172.792 28.4729 174.165 29.375L224.29 62.7093Z" fill="white"/>
<path d="M224.29 193.29L174.291 226.624C172.589 227.735 170.545 228.195 168.532 227.92C166.52 227.644 164.674 226.651 163.334 225.125L110.04 163.291L79.6656 127.959L42.6656 85.0405C41.278 83.4462 39.3387 82.4358 37.2369 82.2121C35.1352 81.9883 33.0266 82.5679 31.3344 83.8344L64.6656 58.8344C66.1092 57.7545 67.8628 57.1692 69.6656 57.1656C70.7305 57.1566 71.7868 57.3582 72.7736 57.7588C73.7604 58.1595 74.6583 58.7512 75.4156 59.5L75.9999 60.0843L110.04 92.7094L146.834 128L213.334 191.75L213.915 192.334C214.673 193.082 215.571 193.672 216.558 194.072C217.544 194.472 218.601 194.674 219.665 194.665C221.308 194.671 222.917 194.193 224.29 193.29Z" fill="white"/>
<path d="M228 69.6655V186.334C228.001 187.709 227.663 189.064 227.016 190.276C226.369 191.49 225.433 192.525 224.29 193.29L174.291 226.624C175.433 225.859 176.369 224.823 177.017 223.609C177.663 222.395 178 221.041 177.999 219.665V36.3343C177.981 34.9486 177.622 33.5889 176.953 32.3751C176.284 31.1613 175.327 30.1309 174.165 29.375L224.29 62.7093C225.429 63.4774 226.364 64.5131 227.011 65.7258C227.658 66.9385 227.997 68.2911 228 69.6655Z" fill="white"/>
</mask>
<g mask="url(#mask0_217_156)">
<path d="M64.6656 197.165L31.3344 172.166C30.2952 171.394 29.4519 170.387 28.8727 169.23C28.2935 168.072 27.9946 166.794 28.0001 165.5V90.4999C27.9946 89.2052 28.2935 87.9273 28.8727 86.7696C29.4519 85.6117 30.2952 84.6062 31.3344 83.8342L64.6656 58.8342C63.7702 59.675 63.0936 60.7216 62.6944 61.8832C62.2952 63.0449 62.1856 64.2863 62.375 65.4999V190.5C62.1856 191.714 62.2952 192.955 62.6944 194.117C63.0936 195.278 63.7702 196.324 64.6656 197.165Z" fill="#5E438F"/>
<g filter="url(#filter0_dd_217_156)">
<path d="M224.289 62.7093C222.917 61.8073 221.308 61.3291 219.665 61.3344C218.601 61.3258 217.544 61.5273 216.557 61.9274C215.571 62.3274 214.673 62.9181 213.915 63.6656L213.334 64.25L177.914 98.2093L146.834 128L110.04 163.291L75.9993 195.915L75.4151 196.5C74.6577 197.248 73.7598 197.84 72.7731 198.241C71.7862 198.641 70.73 198.843 69.665 198.834C67.8622 198.83 66.1087 198.246 64.665 197.165L31.3338 172.166C33.0272 173.437 35.1418 174.016 37.247 173.784C39.3522 173.552 41.2897 172.526 42.6651 170.915L61.3338 149.25L79.665 127.959L110.04 92.7093L163.249 30.9156C164.022 30.0005 164.985 29.2654 166.072 28.7617C167.158 28.2581 168.343 27.9981 169.539 28C171.183 27.9947 172.791 28.4729 174.165 29.375L224.289 62.7093Z" fill="url(#paint0_linear_217_156)"/>
</g>
<g filter="url(#filter1_dd_217_156)">
<path d="M224.289 193.29L174.29 226.625C172.589 227.736 170.545 228.195 168.532 227.92C166.519 227.644 164.674 226.652 163.334 225.125L110.04 163.291L79.665 127.959L61.3338 106.709L42.6651 85.0407C41.2774 83.4464 39.338 82.436 37.2363 82.2122C35.1347 81.9884 33.026 82.5681 31.3338 83.8344L64.665 58.8345C66.1087 57.7546 67.8622 57.1693 69.665 57.1658C70.73 57.1568 71.7862 57.3584 72.7731 57.759C73.7598 58.1596 74.6577 58.7514 75.4151 59.5002L75.9993 60.0845L110.04 92.7094L146.834 128L177.958 157.835L213.334 191.75L213.915 192.335C214.673 193.082 215.571 193.672 216.557 194.072C217.544 194.472 218.601 194.674 219.665 194.665C221.308 194.671 222.917 194.192 224.289 193.29Z" fill="url(#paint1_linear_217_156)"/>
</g>
<g filter="url(#filter2_dd_217_156)">
<path d="M228 69.6653V186.333C228.001 187.709 227.663 189.063 227.016 190.277C226.369 191.489 225.433 192.525 224.29 193.29L174.29 226.624C175.433 225.859 176.369 224.823 177.015 223.609C177.663 222.395 178 221.041 177.999 219.665V36.3341C177.981 34.9485 177.622 33.5886 176.953 32.3748C176.284 31.161 175.327 30.1307 174.165 29.3748L224.29 62.709C225.429 63.4771 226.363 64.5129 227.011 65.7256C227.657 66.9383 227.997 68.291 228 69.6653Z" fill="url(#paint2_linear_217_156)"/>
</g>
</g>
<defs>
<filter id="filter0_dd_217_156" x="26.1529" y="24.1143" width="203.317" height="181.196" filterUnits="userSpaceOnUse" color-interpolation-filters="sRGB">
<feFlood flood-opacity="0" result="BackgroundImageFix"/>
<feColorMatrix in="SourceAlpha" type="matrix" values="0 0 0 0 0 0 0 0 0 0 0 0 0 0 0 0 0 0 127 0" result="hardAlpha"/>
<feOffset dy="0.246095"/>
<feGaussianBlur stdDeviation="0.246095"/>
<feColorMatrix type="matrix" values="0 0 0 0 0 0 0 0 0 0 0 0 0 0 0 0 0 0 0.24 0"/>
<feBlend mode="normal" in2="BackgroundImageFix" result="effect1_dropShadow_217_156"/>
<feColorMatrix in="SourceAlpha" type="matrix" values="0 0 0 0 0 0 0 0 0 0 0 0 0 0 0 0 0 0 127 0" result="hardAlpha"/>
<feOffset dy="1.29524"/>
<feGaussianBlur stdDeviation="2.59048"/>
<feColorMatrix type="matrix" values="0 0 0 0 0 0 0 0 0 0 0 0 0 0 0 0 0 0 0.22 0"/>
<feBlend mode="normal" in2="effect1_dropShadow_217_156" result="effect2_dropShadow_217_156"/>
<feBlend mode="normal" in="SourceGraphic" in2="effect2_dropShadow_217_156" result="shape"/>
</filter>
<filter id="filter1_dd_217_156" x="26.1529" y="53.2798" width="203.317" height="181.194" filterUnits="userSpaceOnUse" color-interpolation-filters="sRGB">
<feFlood flood-opacity="0" result="BackgroundImageFix"/>
<feColorMatrix in="SourceAlpha" type="matrix" values="0 0 0 0 0 0 0 0 0 0 0 0 0 0 0 0 0 0 127 0" result="hardAlpha"/>
<feOffset dy="0.246095"/>
<feGaussianBlur stdDeviation="0.246095"/>
<feColorMatrix type="matrix" values="0 0 0 0 0 0 0 0 0 0 0 0 0 0 0 0 0 0 0.24 0"/>
<feBlend mode="normal" in2="BackgroundImageFix" result="effect1_dropShadow_217_156"/>
<feColorMatrix in="SourceAlpha" type="matrix" values="0 0 0 0 0 0 0 0 0 0 0 0 0 0 0 0 0 0 127 0" result="hardAlpha"/>
<feOffset dy="1.29524"/>
<feGaussianBlur stdDeviation="2.59048"/>
<feColorMatrix type="matrix" values="0 0 0 0 0 0 0 0 0 0 0 0 0 0 0 0 0 0 0.22 0"/>
<feBlend mode="normal" in2="effect1_dropShadow_217_156" result="effect2_dropShadow_217_156"/>
<feBlend mode="normal" in="SourceGraphic" in2="effect2_dropShadow_217_156" result="shape"/>
</filter>
<filter id="filter2_dd_217_156" x="158.622" y="13.8319" width="84.9208" height="228.335" filterUnits="userSpaceOnUse" color-interpolation-filters="sRGB">
<feFlood flood-opacity="0" result="BackgroundImageFix"/>
<feColorMatrix in="SourceAlpha" type="matrix" values="0 0 0 0 0 0 0 0 0 0 0 0 0 0 0 0 0 0 127 0" result="hardAlpha"/>
<feOffset/>
<feGaussianBlur stdDeviation="0.129524"/>
<feColorMatrix type="matrix" values="0 0 0 0 0 0 0 0 0 0 0 0 0 0 0 0 0 0 0.24 0"/>
<feBlend mode="normal" in2="BackgroundImageFix" result="effect1_dropShadow_217_156"/>
<feColorMatrix in="SourceAlpha" type="matrix" values="0 0 0 0 0 0 0 0 0 0 0 0 0 0 0 0 0 0 127 0" result="hardAlpha"/>
<feOffset/>
<feGaussianBlur stdDeviation="7.77143"/>
<feColorMatrix type="matrix" values="0 0 0 0 0 0 0 0 0 0 0 0 0 0 0 0 0 0 0.3 0"/>
<feBlend mode="normal" in2="effect1_dropShadow_217_156" result="effect2_dropShadow_217_156"/>
<feBlend mode="normal" in="SourceGraphic" in2="effect2_dropShadow_217_156" result="shape"/>
</filter>
<linearGradient id="paint0_linear_217_156" x1="190.499" y1="28" x2="41.9893" y2="177.471" gradientUnits="userSpaceOnUse">
<stop stop-color="#7252AA"/>
<stop offset="1" stop-color="#7252AA"/>
</linearGradient>
<linearGradient id="paint1_linear_217_156" x1="46.7501" y1="64.4571" x2="186.332" y2="220.705" gradientUnits="userSpaceOnUse">
<stop stop-color="#AE7FE2"/>
<stop offset="1" stop-color="#9A70D4"/>
</linearGradient>
<linearGradient id="paint2_linear_217_156" x1="200.49" y1="25.3528" x2="200.49" y2="226.456" gradientUnits="userSpaceOnUse">
<stop stop-color="#D59DFF"/>
<stop offset="1" stop-color="#C18EF1"/>
</linearGradient>
</defs>
</svg>

        </g>
         
        <g transform="translate(600, 0)">
          <svg width="256" height="256" viewBox="0 0 256 256" fill="none" xmlns="http://www.w3.org/2000/svg">
<g clip-path="url(#clip0_33_875)">
<path d="M196 0H60C26.8629 0 0 26.8629 0 60V196C0 229.137 26.8629 256 60 256H196C229.137 256 256 229.137 256 196V60C256 26.8629 229.137 0 196 0Z" fill="#242938"/>
<g clip-path="url(#clip1_33_875)">
<path d="M194.595 127.919C194.595 125.87 193.081 124.689 191.223 125.276L63.4021 165.808C61.5404 166.398 60.03 168.541 60.03 170.585V212.011C60.03 214.06 61.5404 215.245 63.4021 214.654L191.223 174.126C193.081 173.535 194.595 171.393 194.595 169.344V127.919Z" fill="url(#paint0_linear_33_875)"/>
<path d="M60.03 126.599C60.03 128.648 61.5404 130.79 63.4021 131.381L191.241 171.916C193.103 172.507 194.613 171.322 194.613 169.277V127.848C194.613 125.803 193.103 123.661 191.241 123.07L63.4021 82.5344C61.5404 81.9437 60.03 83.125 60.03 85.1737V126.599Z" fill="#FF9800"/>
<path d="M194.595 42.7949C194.595 40.7463 193.081 39.5612 191.223 40.1518L63.4021 80.6801C61.5404 81.2708 60.03 83.4129 60.03 85.4616V126.887C60.03 128.936 61.5404 130.117 63.4021 129.53L191.223 88.9981C193.081 88.4075 194.595 86.2653 194.595 84.2204V42.7949Z" fill="#FF9800"/>
</g>
</g>
<defs>
<linearGradient id="paint0_linear_33_875" x1="7476.84" y1="5387.54" x2="8041.22" y2="3500.4" gradientUnits="userSpaceOnUse">
<stop stop-color="#FF9700"/>
<stop offset="0.53" stop-color="#F48E00"/>
<stop offset="1" stop-color="#D06F00"/>
</linearGradient>
<clipPath id="clip0_33_875">
<rect width="256" height="256" fill="white"/>
</clipPath>
<clipPath id="clip1_33_875">
<rect width="175" height="175" fill="white" transform="translate(40 40)"/>
</clipPath>
</defs>
</svg>

        </g>
         
        <g transform="translate(900, 0)">
          <svg width="256" height="256" viewBox="0 0 256 256" fill="none" xmlns="http://www.w3.org/2000/svg">
<g clip-path="url(#clip0_33_480)">
<path d="M196 0H60C26.8629 0 0 26.8629 0 60V196C0 229.137 26.8629 256 60 256H196C229.137 256 256 229.137 256 196V60C256 26.8629 229.137 0 196 0Z" fill="#242938"/>
<path d="M40 65.6631L110.968 55.9983L111 124.453L40.0656 124.857L40 65.6631ZM110.935 132.34L110.99 200.855L40.0557 191.102L40.0517 131.881L110.935 132.34ZM119.537 54.7335L213.636 41V123.582L119.537 124.33V54.7335ZM213.658 132.984L213.636 215.195L119.537 201.914L119.406 132.831L213.658 132.984Z" fill="#00ADEF"/>
</g>
<defs>
<clipPath id="clip0_33_480">
<rect width="256" height="256" fill="white"/>
</clipPath>
</defs>
</svg>

        </g>
         
        <g transform="translate(1200, 0)">
          <svg xmlns="http://www.w3.org/2000/svg" width="256" height="256" fill="none" viewBox="0 0 256 256"><rect width="256" height="256" fill="#242938" rx="60"/><path fill="#CCC" d="M216.042 167.814V74.7425L135.38 28.2068V63.9876L167.025 82.1882C168.266 82.8086 168.266 84.6701 167.025 85.2905L129.382 107.007C128.348 107.628 126.901 107.628 125.866 107.007L88.2243 85.0837C86.9834 84.4632 86.9834 82.6018 88.2243 81.9813L119.869 63.7807V28L39.2068 74.5356V167.814V167.4V167.814L70.2305 150.027V113.419C70.2305 112.178 71.6783 111.144 72.9193 111.971L110.561 133.688C111.596 134.308 112.423 135.549 112.423 136.79V180.223C112.423 181.464 110.975 182.498 109.734 181.671L78.0899 163.47L47.0661 181.257L127.728 227.793L208.39 181.257L177.366 163.47L145.722 181.671C144.688 182.291 143.033 181.464 143.033 180.223V136.79C143.033 135.549 143.653 134.308 144.894 133.688L182.537 111.971C183.571 111.35 185.225 112.178 185.225 113.419V150.027L216.042 167.814Z"/><path fill="#A6A6A6" d="M127.521 228L208.183 181.464L177.159 163.677L145.515 181.878C144.481 182.499 142.826 181.671 142.826 180.43V136.997C142.826 135.756 143.447 134.515 144.688 133.895L182.33 112.178C183.364 111.558 185.019 112.385 185.019 113.626V150.234L216.042 168.021V74.7427L127.521 125.828V228Z"/><path fill="#fff" d="M135.174 28V63.7807L166.818 81.9813C168.059 82.6018 168.059 84.4632 166.818 85.0837L129.176 106.8C128.142 107.421 126.694 107.421 125.66 106.8L88.2243 85.0837C86.9834 84.4632 86.9834 82.6018 88.2243 81.9813L119.869 63.7807V28L39.2068 74.5356L127.728 125.621L216.249 74.5356L135.174 28Z"/><path fill="#CCC" d="M109.32 181.671L77.6763 163.471L46.6525 181.258L127.314 227.793V125.622L39 74.7427V168.021V167.607V168.021L70.0237 150.234V113.626C70.0237 112.385 71.4715 111.351 72.7125 112.178L110.355 133.895C111.389 134.515 112.216 135.756 112.216 136.997V180.43C112.009 181.464 110.561 182.292 109.32 181.671Z"/></svg>
        </g>
         
        <g transform="translate(1500, 0)">
          <svg xmlns="http://www.w3.org/2000/svg" width="256" height="256" fill="none" viewBox="0 0 256 256"><rect width="256" height="256" fill="#F03C2E" rx="60"/><g clip-path="url(#clip0_7_283)"><path fill="#fff" d="M224.225 119.094L136.906 31.775C135.711 30.5787 134.291 29.6298 132.729 28.9824C131.166 28.3349 129.491 28.0017 127.8 28.0017C126.109 28.0017 124.434 28.3349 122.871 28.9824C121.309 29.6298 119.889 30.5787 118.694 31.775L100.569 49.9L123.569 72.9C128.919 71.025 135.044 72.3062 139.306 76.5687C141.335 78.6014 142.752 81.1638 143.394 83.9632C144.036 86.7626 143.878 89.6862 142.937 92.4L165.106 114.569C170.469 112.719 176.656 113.912 180.937 118.206C182.361 119.63 183.49 121.32 184.26 123.18C185.03 125.04 185.426 127.033 185.426 129.046C185.425 131.059 185.029 133.052 184.258 134.912C183.487 136.771 182.358 138.461 180.934 139.884C179.511 141.308 177.821 142.436 175.961 143.206C174.101 143.977 172.108 144.373 170.095 144.372C168.082 144.372 166.088 143.975 164.229 143.205C162.369 142.434 160.679 141.305 159.256 139.881C154.756 135.381 153.644 128.756 155.919 123.212L135.244 102.537V156.944C136.745 157.686 138.116 158.666 139.306 159.844C140.729 161.267 141.858 162.956 142.629 164.816C143.399 166.675 143.795 168.668 143.795 170.681C143.795 172.694 143.399 174.687 142.629 176.546C141.858 178.406 140.729 180.096 139.306 181.519C137.883 182.942 136.193 184.071 134.334 184.841C132.474 185.611 130.481 186.008 128.469 186.008C126.456 186.008 124.463 185.611 122.604 184.841C120.744 184.071 119.054 182.942 117.631 181.519C116.206 180.096 115.076 178.407 114.305 176.548C113.533 174.688 113.136 172.694 113.136 170.681C113.136 168.668 113.533 166.675 114.305 164.815C115.076 162.955 116.206 161.266 117.631 159.844C119.112 158.369 120.756 157.25 122.65 156.5V101.587C120.825 100.837 119.112 99.7312 117.631 98.2437C115.479 96.0943 114.016 93.3526 113.428 90.3684C112.841 87.3841 113.155 84.2924 114.331 81.4875L91.6437 58.8125L31.7687 118.625C30.5716 119.821 29.6219 121.241 28.9739 122.804C28.3259 124.367 27.9924 126.042 27.9924 127.734C27.9924 129.426 28.3259 131.102 28.9739 132.665C29.6219 134.228 30.5716 135.648 31.7687 136.844L119.094 224.156C120.289 225.352 121.709 226.301 123.271 226.949C124.834 227.596 126.509 227.929 128.2 227.929C129.891 227.929 131.566 227.596 133.129 226.949C134.691 226.301 136.111 225.352 137.306 224.156L224.225 137.375C225.422 136.179 226.372 134.759 227.02 133.196C227.668 131.633 228.001 129.958 228.001 128.266C228.001 126.574 227.668 124.898 227.02 123.335C226.372 121.772 225.422 120.352 224.225 119.156"/></g><defs><clipPath id="clip0_7_283"><rect width="200" height="200" fill="#fff" transform="translate(28 28)"/></clipPath></defs></svg>
        </g>
         
        <g transform="translate(1800, 0)">
          <svg width="256" height="256" viewBox="0 0 256 256" fill="none" xmlns="http://www.w3.org/2000/svg">
<rect width="256" height="256" rx="60" fill="#242938"/>
<path d="M128 34L223 198.853H33L128 34Z" fill="white"/>
</svg>

        </g>
         
        <g transform="translate(2100, 0)">
          <svg width="256" height="256" viewBox="0 0 256 256" fill="none" xmlns="http://www.w3.org/2000/svg">
<rect width="256" height="256" rx="60" fill="#242938"/>
<path d="M128.001 30C72.7791 30 28 74.7708 28 130.001C28 174.184 56.6533 211.668 96.3867 224.891C101.384 225.817 103.219 222.722 103.219 220.081C103.219 217.696 103.126 209.819 103.083 201.463C75.2631 207.512 69.3927 189.664 69.3927 189.664C64.8437 178.105 58.2894 175.032 58.2894 175.032C49.2163 168.825 58.9733 168.953 58.9733 168.953C69.0151 169.658 74.3026 179.258 74.3026 179.258C83.2217 194.546 97.6965 190.126 103.403 187.571C104.301 181.107 106.892 176.696 109.752 174.199C87.5405 171.67 64.1913 163.095 64.1913 124.778C64.1913 113.86 68.0977 104.939 74.4947 97.9362C73.4564 95.4175 70.0335 85.2465 75.4635 71.4722C75.4635 71.4722 83.8609 68.7845 102.971 81.7226C110.948 79.5069 119.502 78.3958 128.001 78.3577C136.499 78.3958 145.061 79.5069 153.052 81.7226C172.139 68.7845 180.525 71.4722 180.525 71.4722C185.968 85.2465 182.544 95.4175 181.505 97.9362C187.917 104.939 191.797 113.86 191.797 124.778C191.797 163.187 168.403 171.644 146.135 174.119C149.722 177.223 152.918 183.308 152.918 192.638C152.918 206.018 152.802 216.787 152.802 220.081C152.802 222.742 154.602 225.86 159.671 224.878C199.383 211.64 228 174.169 228 130.001C228 74.7708 183.227 30 128.001 30ZM65.4536 172.453C65.2333 172.95 64.4517 173.099 63.7396 172.758C63.0143 172.432 62.6069 171.754 62.8421 171.256C63.0574 170.744 63.8406 170.602 64.5643 170.945C65.2913 171.271 65.7053 171.955 65.4536 172.453ZM70.3725 176.842C69.8956 177.285 68.9633 177.079 68.3307 176.38C67.6766 175.683 67.554 174.751 68.0376 174.302C68.5294 173.86 69.4336 174.067 70.0893 174.764C70.7434 175.47 70.8709 176.395 70.3725 176.842ZM73.7471 182.458C73.1344 182.884 72.1325 182.485 71.5132 181.595C70.9004 180.706 70.9004 179.64 71.5264 179.212C72.1474 178.785 73.1344 179.169 73.762 180.052C74.373 180.956 74.373 182.023 73.7471 182.458ZM79.4542 188.962C78.9061 189.566 77.7386 189.404 76.8841 188.579C76.0098 187.773 75.7663 186.629 76.3161 186.024C76.8709 185.418 78.045 185.589 78.9061 186.407C79.7738 187.211 80.0387 188.364 79.4542 188.962ZM86.8301 191.157C86.5883 191.941 85.4639 192.297 84.3312 191.964C83.2002 191.621 82.46 190.704 82.6885 189.912C82.9237 189.124 84.053 188.753 85.194 189.109C86.3234 189.45 87.0652 190.361 86.8301 191.157ZM95.2242 192.089C95.2523 192.913 94.2919 193.597 93.1029 193.612C91.9073 193.639 90.9402 192.971 90.9269 192.16C90.9269 191.327 91.8659 190.65 93.0615 190.63C94.2505 190.607 95.2242 191.269 95.2242 192.089ZM103.47 191.773C103.613 192.577 102.787 193.404 101.606 193.624C100.445 193.836 99.3702 193.339 99.2229 192.541C99.0788 191.716 99.92 190.89 101.079 190.676C102.262 190.471 103.32 190.955 103.47 191.773Z" fill="white"/>
</svg>

        </g>
         
        <g transform="translate(2400, 0)">
          <svg xmlns="http://www.w3.org/2000/svg" width="256" height="256" fill="none" viewBox="0 0 256 256"><rect width="256" height="256" fill="#242938" rx="60"/><path stroke="#fff" stroke-width="10" d="M217 69H39C33.4772 69 29 73.4772 29 79V177C29 182.523 33.4772 187 39 187H217C222.523 187 227 182.523 227 177V79C227 73.4772 222.523 69 217 69Z"/><path fill="#fff" d="M54 162V94H74L94 119L114 94H134V162H114V123L94 148L74 123V162H54ZM179 162L149 129H169V94H189V129H209L179 162Z"/></svg>
        </g>
         
        <g transform="translate(2700, 0)">
          <svg xmlns="http://www.w3.org/2000/svg" width="256" height="256" fill="none" viewBox="0 0 256 256"><rect width="256" height="256" fill="#001E36" rx="60"/><path fill="#31A8FF" d="M57.6001 178.04V68.2799C57.6001 67.5332 57.9201 67.1066 58.6668 67.1066C60.4801 67.1066 62.1868 67.1066 64.6401 66.9999C67.2001 66.8932 69.8668 66.8932 72.7468 66.7866C75.6268 66.6799 78.7201 66.6799 82.0268 66.5732C85.3334 66.4666 88.5334 66.4666 91.7334 66.4666C100.48 66.4666 107.733 67.5332 113.707 69.7732C119.04 71.5866 123.947 74.5732 128 78.5199C131.413 81.9332 134.08 86.0932 135.787 90.6799C137.387 95.1599 138.24 99.7466 138.24 104.547C138.24 113.72 136.107 121.293 131.84 127.267C127.573 133.24 121.6 137.72 114.667 140.28C107.413 142.947 99.4134 143.907 90.6668 143.907C88.1068 143.907 86.4001 143.907 85.3334 143.8C84.2668 143.693 82.7734 143.693 80.7468 143.693V177.933C80.8534 178.68 80.3201 179.32 79.5734 179.427C79.4668 179.427 79.3601 179.427 79.1468 179.427H58.8801C58.0268 179.427 57.6001 179 57.6001 178.04ZM80.8534 87.6932V123.533C82.3468 123.64 83.7334 123.747 85.0134 123.747H90.6668C94.8268 123.747 98.9868 123.107 102.933 121.827C106.347 120.867 109.333 118.84 111.68 116.173C113.92 113.507 114.987 109.88 114.987 105.187C115.093 101.88 114.24 98.5732 112.533 95.6932C110.72 92.9199 108.16 90.7866 105.067 89.6132C101.12 88.0132 96.8534 87.3732 92.4801 87.4799C89.7068 87.4799 87.2534 87.4799 85.2268 87.5866C83.0934 87.4799 81.6001 87.5866 80.8534 87.6932Z"/><path fill="#31A8FF" d="M204.8 117.027C201.6 115.32 198.187 114.147 194.56 113.4C190.613 112.547 186.667 112.013 182.613 112.013C180.48 111.907 178.24 112.227 176.213 112.76C174.827 113.08 173.653 113.827 172.907 114.893C172.373 115.747 172.053 116.813 172.053 117.773C172.053 118.733 172.48 119.693 173.12 120.547C174.08 121.72 175.36 122.68 176.747 123.427C179.2 124.707 181.76 125.88 184.32 126.947C190.08 128.867 195.627 131.533 200.747 134.733C204.267 136.973 207.147 139.96 209.173 143.587C210.88 147 211.733 150.733 211.627 154.573C211.733 159.587 210.24 164.6 207.467 168.76C204.48 173.027 200.32 176.333 195.52 178.253C190.293 180.493 183.893 181.667 176.213 181.667C171.307 181.667 166.507 181.24 161.707 180.28C157.973 179.64 154.24 178.467 150.827 176.867C150.08 176.44 149.547 175.693 149.653 174.84V156.28C149.653 155.96 149.76 155.533 150.08 155.32C150.4 155.107 150.72 155.213 151.04 155.427C155.2 157.88 159.573 159.587 164.267 160.653C168.32 161.72 172.587 162.253 176.853 162.253C180.907 162.253 183.787 161.72 185.707 160.76C187.413 160.013 188.587 158.2 188.587 156.28C188.587 154.787 187.733 153.4 186.027 152.013C184.32 150.627 180.8 149.027 175.573 147C170.133 145.08 165.12 142.52 160.427 139.32C157.12 136.973 154.347 133.88 152.32 130.253C150.613 126.84 149.76 123.107 149.867 119.373C149.867 114.787 151.147 110.413 153.493 106.467C156.16 102.2 160.107 98.7866 164.693 96.6532C169.707 94.0932 176 92.9199 183.573 92.9199C187.947 92.9199 192.427 93.2399 196.8 93.8799C200 94.3066 203.093 95.1599 205.973 96.3332C206.4 96.4399 206.827 96.8666 207.04 97.2932C207.147 97.7199 207.253 98.1466 207.253 98.5732V115.96C207.253 116.387 207.04 116.813 206.72 117.027C205.76 117.24 205.227 117.24 204.8 117.027Z"/></svg>
        </g>
         
        <g transform="translate(3000, 0)">
          <svg xmlns="http://www.w3.org/2000/svg" width="256" height="256" fill="none" viewBox="0 0 256 256"><rect width="256" height="256" fill="#0073AA" rx="60"/><path fill="#fff" d="M42.2141 127.994C42.2141 161.949 61.9469 191.293 90.561 205.199L49.641 93.0829C44.8813 103.752 42.2141 115.558 42.2141 127.994Z"/><path fill="#fff" d="M185.908 123.665C185.908 113.064 182.1 105.722 178.834 100.007C174.485 92.9408 170.409 86.9568 170.409 79.8906C170.409 72.005 176.39 64.6646 184.814 64.6646C185.195 64.6646 185.555 64.7119 185.926 64.7332C170.664 50.7509 150.331 42.2141 127.997 42.2141C98.0286 42.2141 71.6621 57.5903 56.3235 80.8798C58.3361 80.9402 60.2328 80.9826 61.8439 80.9826C70.8166 80.9826 84.7058 79.8939 84.7058 79.8939C89.3301 79.6213 89.8753 86.4133 85.2559 86.9601C85.2559 86.9601 80.6087 87.5069 75.4376 87.7779L106.676 180.696L125.449 124.393L112.084 87.7746C107.465 87.5037 103.089 86.9568 103.089 86.9568C98.466 86.6859 99.008 79.6181 103.631 79.8906C103.631 79.8906 117.797 80.9794 126.226 80.9794C135.198 80.9794 149.088 79.8906 149.088 79.8906C153.716 79.6181 154.259 86.41 149.638 86.9568C149.638 86.9568 144.981 87.5037 139.82 87.7746L170.821 179.989L179.377 151.397C183.086 139.531 185.908 131.009 185.908 123.665Z"/><path fill="#fff" d="M129.503 135.498L103.765 210.288C111.449 212.547 119.577 213.783 127.998 213.783C137.987 213.783 147.567 212.056 156.484 208.92C156.254 208.553 156.045 208.163 155.874 207.738L129.503 135.498Z"/><path fill="#fff" d="M203.269 86.8375C203.638 89.5699 203.847 92.5032 203.847 95.6584C203.847 104.363 202.221 114.149 197.324 126.385L171.121 202.144C196.624 187.272 213.778 159.643 213.778 127.996C213.779 113.081 209.97 99.0568 203.269 86.8375Z"/><path fill="#fff" d="M127.998 28C72.8603 28 28 72.857 28 127.994C28 183.138 72.8603 227.993 127.998 227.993C183.133 227.993 228 183.138 228 127.994C227.998 72.857 183.133 28 127.998 28ZM127.998 223.41C75.3887 223.41 32.5851 180.606 32.5851 127.994C32.5851 75.3855 75.3871 32.5851 127.998 32.5851C180.605 32.5851 223.405 75.3855 223.405 127.994C223.405 180.606 180.605 223.41 127.998 223.41Z"/></svg>
        </g>
         
        <g transform="translate(3300, 0)">
          <svg width="256" height="256" viewBox="0 0 256 256" fill="none" xmlns="http://www.w3.org/2000/svg">
<g clip-path="url(#clip0_33_588)">
<path d="M196 0H60C26.8629 0 0 26.8629 0 60V196C0 229.137 26.8629 256 60 256H196C229.137 256 256 229.137 256 196V60C256 26.8629 229.137 0 196 0Z" fill="#242938"/>
<g clip-path="url(#clip1_33_588)">
<path d="M23 88H233V156.571H128V168H81.3333V156.571H23V88ZM34.6667 145.143H58V110.857H69.6667V145.143H81.3333V99.4286H34.6667V145.143ZM93 99.4286V156.571H116.333V145.143H139.667V99.4286H93ZM116.333 110.857H128V133.714H116.333V110.857ZM151.333 99.4286V145.143H174.667V110.857H186.333V145.143H198V110.857H209.667V145.143H221.333V99.4286H151.333Z" fill="#CB3837"/>
<path d="M34.6667 145.143H58V110.857H69.6667V145.143H81.3334V99.4286H34.6667V145.143Z" fill="white"/>
<path d="M93 99.4286V156.571H116.333V145.143H139.667V99.4286H93ZM128 133.714H116.333V110.857H128V133.714Z" fill="white"/>
<path d="M151.333 99.4286V145.143H174.667V110.857H186.333V145.143H198V110.857H209.667V145.143H221.333V99.4286H151.333Z" fill="white"/>
</g>
</g>
<defs>
<clipPath id="clip0_33_588">
<rect width="256" height="256" fill="white"/>
</clipPath>
<clipPath id="clip1_33_588">
<rect width="210" height="80" fill="white" transform="translate(23 88)"/>
</clipPath>
</defs>
</svg>

        </g>
        
  </svg>
  